The Kings Speech 2011 Dvdrip - PRESTiGE

You are required to register atto download this torrent.
The owner of the site would like to assure you that we do not charge to register and you are free to download.
Any of our torrents providing you keep to the site rules which are to keep a 1:1 ratio.
We have some of the latest movies/music/software/games to download at excellent speeds.
Pop into our shoutbox for a chat with OUR friendly and helpful staff. Join our new site with a refreshing attitude towards sharing

IMDb Link: http://www.imdb.com/title/tt1504320/
Format/Info : Audio Video Interleave
File size : 702 MiB
Duration : 1h 58mn
Overall bit rate : 829 Kbps

Video
ID : 0
Format : MPEG-4 Visual
Format profile : Advanced Simple@L5
Format settings, BVOP : Yes
Format settings, QPel : No
Format settings, GMC : No warppoints
Format settings, Matrix : Default (H.263)
Muxing mode : Packed bitstream
Codec ID : XVID
Codec ID/Hint : XviD
Duration : 1h 58mn
Bit rate : 627 Kbps
Width : 720 pixels
Height : 400 pixels
Display aspect ratio : 16:9
Frame rate : 23.976 fps
Color space : YUV
Chroma subsampling : 4:2:0
Bit depth : 8 bits
Scan type : Progressive
Compression mode : Lossy
Bits/(Pixel*Frame) : 0.091
Stream size : 531 MiB (76%)
Writing library : XviD 1.2.0.dev47 (UTC 2006-11-01)

Audio
ID : 1
Format : MPEG Audio
Format version : Version 1
Format profile : Layer 3
Mode : Joint stereo
Mode extension : MS Stereo
Codec ID : 55
Codec ID/Hint : MP3
Duration : 1h 58mn
Bit rate mode : Constant
Bit rate : 192 Kbps
Channel(s) : 2 channels
Sampling rate : 44.1 KHz
Compression mode : Lossy
Delay relative to video : 26ms
Stream size : 163 MiB (23%)
Alignment : Split accross interleaves
Interleave, duration : 42 ms (1.00 video frame)
Interleave, preload duration : 500 ms
encoded by bigguy
source - twizted (thank you guys)

Cast
Colin Firth ... King George VI
Geoffrey Rush ... Lionel Logue
Helena Bonham Carter ... Queen Elizabeth
Guy Pearce ... King Edward VIII
Jennifer Ehle ... Myrtle Logue
Michael Gambon ... King George V
Derek Jacobi ... rchbishop Cosmo Lang
Timothy Spall ... Winston Churchill
Anthony Andrews ... Stanley Baldwin
Roger Parrott ... Neville Chamberlain

Plot
Tells the story of the man who became King George VI the father of Queen Elizabeth II. After his brother abdicates George ('Bertie') reluctantly assumes the throne. Plagued by a dreaded stammer and considered unfit to be king, Bertie engages the help of an unorthodox speech therapist named Lionel Logue. Through a set of unexpected techniques and as a result of an unlikely friendship Bertie is able to find his voice and boldly lead the country through war. 